<svg width="17" height="15" viewBox="0 0 17 15" fill="none" xmlns="http://www.w3.org/2000/svg">
<path fill-rule="evenodd" clip-rule="evenodd" d="M0 7.72559C0 7.31137 0.335786 6.97559 0.75 6.97559L15.75 6.97559C16.1642 6.97559 16.5 7.31137 16.5 7.72559C16.5 8.1398 16.1642 8.47559 15.75 8.47559L0.75 8.47559C0.335786 8.47559 0 8.1398 0 7.72559Z" fill="#A3B938"/>
<path fill-rule="evenodd" clip-rule="evenodd" d="M9.03941 1.34531C9.23594 0.980686 9.69084 0.844425 10.0555 1.04096L9.69961 1.70116C10.0555 1.04096 10.0553 1.04087 10.0555 1.04096L10.0575 1.04205L10.0617 1.04433L10.0766 1.05243L10.1311 1.08247C10.1781 1.10853 10.246 1.14653 10.3318 1.19555C10.5032 1.29354 10.7465 1.43582 11.0379 1.61502C11.6191 1.97254 12.3982 2.48117 13.1812 3.08188C13.9596 3.67917 14.7662 4.38597 15.3851 5.14329C15.9893 5.88281 16.4996 6.77329 16.4996 7.72416C16.4996 8.67537 15.9895 9.56623 15.3852 10.3062C14.7664 11.0639 13.9598 11.771 13.1813 12.3686C12.3984 12.9696 11.6192 13.4784 11.038 13.836C10.7466 14.0153 10.5033 14.1576 10.3319 14.2557C10.2461 14.3047 10.1782 14.3427 10.1312 14.3688L10.0767 14.3988L10.0618 14.4069L10.0576 14.4092L10.0563 14.4099C10.0561 14.41 10.0555 14.4103 9.69961 13.7502L10.0563 14.4099C9.69169 14.6065 9.23603 14.4707 9.03945 14.1061C8.8429 13.7416 8.97903 13.2867 9.34349 13.0901C9.34354 13.0901 9.34344 13.0901 9.34349 13.0901L9.3462 13.0886L9.35727 13.0826L9.4039 13.0569C9.4455 13.0338 9.50761 12.9991 9.58728 12.9535C9.7467 12.8624 9.97603 12.7283 10.2519 12.5585C10.805 12.2182 11.5384 11.7388 12.2679 11.1787C13.002 10.6153 13.7078 9.98867 14.2234 9.35738C14.7535 8.70834 14.9996 8.15495 14.9996 7.72416C14.9996 7.29403 14.7536 6.74113 14.2235 6.09241C13.708 5.46147 13.0021 4.83515 12.2681 4.27194C11.5385 3.71215 10.8051 3.2329 10.252 2.89267C9.97613 2.723 9.7468 2.58893 9.58737 2.49781C9.5077 2.45226 9.44559 2.4175 9.40399 2.39445L9.35736 2.36877L9.34629 2.36274L9.34394 2.36146C9.34388 2.36143 9.34399 2.36149 9.34394 2.36146M9.03941 1.34531C8.8429 1.70987 8.97944 2.16488 9.34394 2.36146Z" fill="#A3B938"/>
</svg>
